<svg xmlns="http://www.w3.org/2000/svg" viewBox="0 0 48 48">
  <rect width="48" height="48" rx="11" fill="#8c6424"/>
  <g transform="translate(24 24) scale(0.86) translate(-24 -24)"><g transform="rotate(24 24 24)"><path d="M24 7C30.6 7 35.4 15.4 35.4 25 35.4 35.2 30.4 42.6 24 42.6S12.6 35.2 12.6 25C12.6 15.4 17.4 7 24 7Z" fill="#f6ecd2"/><path d="M24 7C30.6 7 35.4 15.4 35.4 25 35.4 35.2 30.4 42.6 24 42.6 27.6 36.4 28.4 29.8 28.4 25 28.4 18.6 27 12.2 24 7Z" fill="#d9b878"/><path d="M24 7C27 12.2 28.4 18.6 28.4 25 28.4 29.8 27.6 36.4 24 42.6" fill="none" stroke="#8c6424" stroke-width="1.6"/></g></g>
</svg>
